<svg width="47" height="34" viewBox="0 0 47 34" fill="none" xmlns="http://www.w3.org/2000/svg">
<path d="M0 9.86894C0 6.64643 4.43396 5.8408 9.53302 5.23658V5.03517C9.53302 2.8197 8.20283 2.21548 6.65094 2.21548C5.09906 2.21548 3.76887 3.0211 3.76887 4.63236H0.665094C0.886792 1.81266 3.32547 0 6.65094 0C9.97641 0 12.8585 1.40985 12.6368 5.63939C12.6368 6.24361 12.6368 7.85487 12.6368 9.06331C12.6368 10.6746 12.8585 12.4872 13.0802 13.4943H10.1981C10.1981 12.89 9.97641 12.6886 9.97641 11.6816C9.08962 13.0914 7.31604 13.6957 5.32075 13.6957C2.21698 13.6957 0 12.0844 0 9.86894ZM9.75471 7.25065C5.32075 7.65346 3.32547 8.25768 3.32547 9.66753C3.32547 10.876 4.43396 11.4802 5.98585 11.4802C8.42453 11.4802 9.75471 10.4732 9.75471 8.25768V7.25065Z" fill="#14040C"/>
<path d="M24.165 33.4335H22.6132V0H24.165V33.4335Z" fill="#14040C"/>
<path d="M41.0142 33.8364C38.7972 33.8364 37.2453 33.0307 36.1368 31.4195V33.6349H34.585V15.9111H36.1368V22.759C37.2453 21.1477 38.7972 20.3421 41.0142 20.3421C44.3397 20.3421 47.0001 22.759 47.0001 27.1899C47.0001 31.6209 44.3397 33.8364 41.0142 33.8364ZM40.5708 32.4265C43.2312 32.4265 45.2265 30.4124 45.2265 26.9885C45.2265 23.5646 43.2312 21.5505 40.5708 21.5505C38.3538 21.5505 35.9152 23.1618 35.9152 26.9885C35.9152 30.8152 38.3538 32.4265 40.5708 32.4265Z" fill="#14040C"/>
</svg>
