<svg id="Calque_1" data-name="Calque 1" xmlns="http://www.w3.org/2000/svg" viewBox="0 0 158.76 55"><defs><style>.cls-1{fill:none;stroke:#1d1d1b;}</style></defs><path class="cls-1" d="M47.67,20.85H39c-1.37-7.12-6.63-10.22-12.46-10.22-7.27,0-13,6.12-13,16.78,0,11,5.68,16.92,13.17,16.92,5.4,0,11.09-2.31,12.68-10.23H51.49C49.55,46.2,39.83,54.48,26.65,54.48,10.38,54.48.51,44.11.51,27.41.51,10.92,10.67.48,27,.48c9.17,0,16.52,4.2,20.67,10.82" transform="translate(-0.01 0.02)"/><path class="cls-1" d="M47.67,33.78V20.85M79.83,53.54H47.67V44m0-22.55v-20H60V42.69H71.42" transform="translate(-0.01 0.02)"/><path class="cls-1" d="M71.42,42.69,87,1.36h13.51l19.73,52.2H106.86l-3.17-9.28H85m0,0H83.49l-3.1,9.28H67.29l4.09-10.87m15.49-8.42h13.47l-6.7-19.88Z" transform="translate(-0.01 0.02)"/><path class="cls-1" d="M114.49,38.44V1.36h20.09c13.54,0,23.69,3.31,23.69,17S148.12,35.5,134.58,35.5h-7.77V53.57h-6.6m6.6-41.83V25.13h8.13c5.76,0,10.3-1.29,10.3-6.77s-4.54-6.62-10.3-6.62Z" transform="translate(-0.01 0.02)"/></svg>