<svg width="18" height="57" viewBox="0 0 18 57" fill="none" xmlns="http://www.w3.org/2000/svg">
<path d="M7.4 12.2888H8.4V11.469L7.59612 11.3082L7.4 12.2888ZM11.08 12.1888L10.8915 11.2068L10.08 11.3625V12.1888H11.08ZM11.08 15.5488H10.08V16.7048L11.2239 16.5384L11.08 15.5488ZM7.4 15.6488L7.24132 16.6362L8.4 16.8224V15.6488H7.4ZM7.59612 11.3082C6.72196 11.1334 6.25196 10.7598 5.98102 10.3627C5.6935 9.94133 5.56 9.38827 5.56 8.76883H3.56C3.56 9.64939 3.7465 10.6363 4.32898 11.49C4.92804 12.3679 5.87804 13.0042 7.20388 13.2694L7.59612 11.3082ZM5.56 8.76883C5.56 8.01059 5.8493 7.38443 6.39957 6.92963C6.96636 6.46118 7.89415 6.10883 9.26 6.10883V4.10883C7.56585 4.10883 6.14364 4.54648 5.12543 5.38802C4.0907 6.24322 3.56 7.44707 3.56 8.76883H5.56ZM9.26 6.10883C10.5654 6.10883 11.4889 6.46099 12.0656 6.93431C12.6299 7.39747 12.92 8.01917 12.92 8.72883H14.92C14.92 7.41849 14.3601 6.23019 13.3344 5.38835C12.3211 4.55666 10.9146 4.10883 9.26 4.10883V6.10883ZM12.92 8.72883C12.92 9.3661 12.7512 9.91328 12.4433 10.3228C12.1443 10.7204 11.6621 11.0589 10.8915 11.2068L11.2685 13.1709C12.4779 12.9388 13.4157 12.3573 14.0417 11.5249C14.6588 10.7044 14.92 9.71156 14.92 8.72883H12.92ZM10.08 12.1888L10.08 15.5488H12.08L12.08 12.1888H10.08ZM11.2239 16.5384C15.0182 15.9865 17.74 12.9628 17.74 8.84883H15.74C15.74 11.9749 13.7418 14.1511 10.9361 14.5592L11.2239 16.5384ZM17.74 8.84883C17.74 6.36148 16.9407 4.24602 15.4177 2.75238C13.897 1.26101 11.7563 0.488828 9.26 0.488828V2.48883C11.3437 2.48883 12.943 3.12665 14.0173 4.18028C15.0893 5.23163 15.74 6.79618 15.74 8.84883H17.74ZM9.26 0.488828C6.74469 0.488828 4.59419 1.23444 3.06689 2.703C1.53473 4.17623 0.74 6.2713 0.74 8.74883H2.74C2.74 6.70636 3.38527 5.17143 4.45311 4.14466C5.52581 3.11322 7.13531 2.48883 9.26 2.48883V0.488828ZM0.74 8.74883C0.74 12.8761 3.37344 16.0145 7.24132 16.6362L7.55868 14.6615C4.70656 14.2031 2.74 11.9415 2.74 8.74883H0.74ZM8.4 15.6488L8.4 12.2888L6.4 12.2888L6.4 15.6488L8.4 15.6488ZM16.5 20.7888V21.7888H17.5V20.7888H16.5ZM16.5 17.3688H17.5V16.3688H16.5V17.3688ZM2 17.3688V16.3688H1V17.3688H2ZM2 27.7488H1V28.7488H2V27.7488ZM5.02 27.7488V28.7488H6.02V27.7488H5.02ZM5.02 20.7888V19.7888H4.02V20.7888H5.02ZM17.5 20.7888V17.3688H15.5V20.7888H17.5ZM16.5 16.3688H2V18.3688H16.5V16.3688ZM1 17.3688V27.7488H3V17.3688H1ZM2 28.7488H5.02V26.7488H2V28.7488ZM6.02 27.7488V20.7888H4.02V27.7488H6.02ZM5.02 21.7888H16.5V19.7888H5.02V21.7888ZM2 27.8238L2.3524 26.888L1 26.3787V27.8238H2ZM2 31.4638H1V32.1846L1.68377 32.4125L2 31.4638ZM4.58 32.3238H5.58V31.6031L4.89623 31.3751L4.58 32.3238ZM4.58 37.9238L4.90282 38.8703L5.58 38.6393V37.9238H4.58ZM2 38.8038L1.67718 37.8574L1 38.0883V38.8038H2ZM2 42.5238H1V43.9708L2.35353 43.4593L2 42.5238ZM16.5 37.0438L16.8535 37.9793L17.5 37.7349V37.0438H16.5ZM16.5 33.2838H17.5V32.5918L16.8524 32.348L16.5 33.2838ZM12.88 35.1438L13.1993 36.0915L15.9967 35.1489L13.2024 34.1972L12.88 35.1438ZM7.36 37.0038H6.36V38.396L7.67932 37.9515L7.36 37.0038ZM7.36 33.2638L7.68239 32.3172L6.36 31.8668V33.2638H7.36ZM1 27.8238L1 31.4638H3L3 27.8238H1ZM1.68377 32.4125L4.26377 33.2725L4.89623 31.3751L2.31623 30.5151L1.68377 32.4125ZM3.58 32.3238V37.9238H5.58V32.3238H3.58ZM4.25718 36.9774L1.67718 37.8574L2.32282 39.7503L4.90282 38.8703L4.25718 36.9774ZM1 38.8038V42.5238H3V38.8038H1ZM2.35353 43.4593L16.8535 37.9793L16.1465 36.1084L1.64647 41.5884L2.35353 43.4593ZM17.5 37.0438L17.5 33.2838H15.5V37.0438H17.5ZM16.8524 32.348L2.3524 26.888L1.6476 28.7597L16.1476 34.2197L16.8524 32.348ZM12.5607 34.1962L7.04068 36.0562L7.67932 37.9515L13.1993 36.0915L12.5607 34.1962ZM8.36 37.0038V33.2638H6.36V37.0038H8.36ZM7.03761 34.2104L12.5576 36.0904L13.2024 34.1972L7.68239 32.3172L7.03761 34.2104ZM16.5 43.736H17.5V42.736H16.5V43.736ZM2 43.736V42.736H1V43.736H2ZM2 47.156H1V48.156H2V47.156ZM7.02 47.156H8.02V46.156H7.02V47.156ZM9.9 47.156V46.156H8.9V47.156H9.9ZM13.62 47.156H14.62V46.156H13.62V47.156ZM16.5 42.736H2V44.736H16.5V42.736ZM1 43.736V47.156H3V43.736H1ZM2 48.156H7.02V46.156H2V48.156ZM6.02 47.156V49.316H8.02V47.156H6.02ZM6.02 49.316C6.02 51.2375 6.25183 53.1153 7.11242 54.5345C8.03376 56.0539 9.57707 56.896 11.78 56.896V54.896C10.1629 54.896 9.32624 54.3281 8.82258 53.4975C8.25817 52.5667 8.02 51.1546 8.02 49.316H6.02ZM11.78 56.896C13.9757 56.896 15.5099 56.0515 16.4225 54.5305C17.2737 53.1119 17.5 51.2352 17.5 49.316H15.5C15.5 51.1568 15.2663 52.5701 14.7075 53.5015C14.2101 54.3306 13.3843 54.896 11.78 54.896V56.896ZM17.5 49.316V43.736H15.5V49.316H17.5ZM12.62 49.416C12.62 50.1929 12.534 50.6962 12.3843 50.9817C12.3214 51.1018 12.2597 51.1582 12.2024 51.1918C12.1422 51.2272 12.0203 51.276 11.78 51.276V53.276C12.2997 53.276 12.7878 53.1674 13.2151 52.9165C13.6453 52.6639 13.9486 52.3053 14.1557 51.9103C14.546 51.1658 14.62 50.2391 14.62 49.416H12.62ZM11.78 51.276C11.54 51.276 11.4127 51.2273 11.3456 51.1885C11.2811 51.1511 11.2147 51.0901 11.1485 50.9684C10.9938 50.6838 10.9 50.1818 10.9 49.416H8.9C8.9 50.2503 8.98619 51.1783 9.39145 51.9237C9.60529 52.317 9.91394 52.6709 10.3444 52.9198C10.7723 53.1673 11.26 53.276 11.78 53.276V51.276ZM10.9 49.416V47.156H8.9V49.416H10.9ZM9.9 48.156H13.62V46.156H9.9V48.156ZM12.62 47.156V49.416H14.62V47.156H12.62Z" fill="white"/>
</svg>
