<svg width="31" height="29" viewBox="0 0 31 29" fill="none" xmlns="http://www.w3.org/2000/svg">
<path d="M7.03724 29V9.43375H0.392063V29H7.03724ZM3.71551 6.76071C6.0328 6.76071 7.47521 5.25825 7.47521 3.38067C7.43203 1.46076 6.03289 0 3.75949 0C1.48644 0 0 1.46079 0 3.38067C0 5.25833 1.44205 6.76071 3.67213 6.76071H3.71531H3.71551ZM10.7153 29H17.3605V18.0732C17.3605 17.4885 17.4037 16.9043 17.5792 16.4863C18.0596 15.3179 19.153 14.1078 20.9886 14.1078C23.3933 14.1078 24.3552 15.902 24.3552 18.5323V28.9999H31V17.7808C31 11.7708 27.7216 8.97439 23.3495 8.97439C19.7647 8.97439 18.1907 10.9354 17.3163 12.2711H17.3607V9.43334H10.7155C10.8027 11.2693 10.7155 28.9996 10.7155 28.9996L10.7153 29Z" fill="white"/>
</svg>
